<svg xmlns="http://www.w3.org/2000/svg" viewBox="0 0 350 87.52"><defs><style>.cls-1{fill:#fff;}.cls-2,.cls-3{fill:#4ccf80;}.cls-2{fill-rule:evenodd;}</style></defs><g id="Layer_2" data-name="Layer 2"><g id="Layer_1-2" data-name="Layer 1"><path class="cls-1" d="M91.23,59.05V53.43h22.56c2.35,0,3.36-.52,3.36-2.53V49.29c0-1.87-1-2.57-3.31-2.57H99.68c-6.66,0-8.4-2.44-8.4-7.53V37.71c0-6.1,2.43-8.36,8.4-8.36h9.23V35h-8.62c-2,0-3,.61-3,3v1c0,1.88.78,2.57,2.92,2.57h13.89c6.62,0,9.06,2.18,9.06,7.54v2.35c0,5.53-2.44,7.71-9.06,7.71Z"/><path class="cls-1" d="M153.6,52.21H133.05l-4.23,6.84H121.2l17.25-27.44a5.72,5.72,0,0,1,10,0l17.16,27.44h-7.67Zm-17.46-5.1h14.37L143.32,35.4Z"/><path class="cls-1" d="M165.93,59.05V29.35h6.62v29.7Z"/><path class="cls-1" d="M202.91,58.31,181.26,37.93V59.05h-6.14V31.44c0-1.88,1.44-2.75,3.53-2.75a4.13,4.13,0,0,1,3.09,1.09l21.82,21V29.35h6.27V57c0,2-1.35,2.74-3.31,2.74A4.91,4.91,0,0,1,202.91,58.31Z"/><path class="cls-1" d="M223.38,59.05c-8.75,0-11.32-2.7-11.32-10.19V39.54c0-7.49,2.57-10.19,11.32-10.19H244v5.7H223.69c-4.05,0-5.05,1.18-5.05,4.84V48.6c0,3.7,1,4.79,5.09,4.79H244v5.66Z"/><path class="cls-1" d="M256.83,59.05c-8.75,0-11.32-2.7-11.32-10.19V29.35h6.66V48.64c0,3.66,1.35,4.75,5.32,4.75h10c4,0,5.31-1.09,5.31-4.79V29.35h6.58V48.86c0,7.49-2.57,10.19-11.37,10.19Z"/><path class="cls-1" d="M281.66,29.35h25c6.75,0,9.36,1.78,9.36,6.75v2.43c0,3.49-1.35,4.75-3.22,5.27,2.13.44,3.61,1.79,3.61,6.19V52.6c0,4.71-2.57,6.45-9.32,6.45H281.66Zm6.62,5.4v6.83h18.56c2.3,0,3-.65,3-2.61V37.1c0-1.79-.91-2.35-3.7-2.35Zm0,11.62v7.28h18.51c2.48,0,3.49-.57,3.49-2.4V49.42c0-2.44-.87-3.05-3.27-3.05Z"/><path class="cls-1" d="M329.27,59.05c-8.75,0-11.32-2.7-11.32-10.19V39.54c0-7.49,2.57-10.19,11.32-10.19h7.32V35h-7.32c-3.83,0-4.75,1.14-4.75,4.58v2h25.31v5.27H324.52V48.9c0,3.57.87,4.53,4.75,4.53H350v5.62Z"/><path class="cls-2" d="M73.88,54.05V32.89a7.91,7.91,0,0,0-2.46-15.43,7.83,7.83,0,0,0-5.3,2.06L47.18,8.59c0-.23,0-.45,0-.68a7.91,7.91,0,1,0-15.82,0A7.34,7.34,0,0,0,31.48,9L13.22,19.52A7.91,7.91,0,1,0,5.45,32.89V54.05a7.9,7.9,0,1,0,7.36,13.71L31.48,78.54a7.48,7.48,0,0,0-.08,1.07,7.91,7.91,0,1,0,15.82,0c0-.23,0-.46,0-.68L66.52,67.76a7.9,7.9,0,1,0,7.36-13.71Zm-4.2-.2a7.9,7.9,0,0,0-6.16,7.71A7.81,7.81,0,0,0,64,64.35L45.69,74.94a7.9,7.9,0,0,0-12.54-.29L15.3,64.35a7.81,7.81,0,0,0,.52-2.79,7.91,7.91,0,0,0-6.17-7.71V33.08a7.9,7.9,0,0,0,6.17-7.71,8.07,8.07,0,0,0-.34-2.31l17.67-10.2a7.89,7.89,0,0,0,12.54-.29L63.86,23.06a8,8,0,0,0-.34,2.31,7.9,7.9,0,0,0,6.16,7.71Z"/><polygon class="cls-3" points="32.37 25.67 37.73 28.55 39.67 27.36 54.16 36 59.62 33.09 39.72 21.5 32.37 25.67"/><polygon class="cls-3" points="19.66 33.12 25.42 35.99 28.3 34.11 42.43 42.26 47.96 39.31 47.96 39.27 28.3 28.15 19.66 33.12"/><polygon class="cls-3" points="42.43 42.26 42.43 42.26 42.67 66.02 59.67 56.34 59.67 33.12 59.62 33.09 54.16 36 54.31 36.09 54.31 52.77 48.05 56.34 47.96 39.31 42.43 42.26"/><polygon class="cls-3" points="19.66 33.12 19.66 55.75 36.74 65.78 36.54 52.77 31.18 49.59 31.18 56.25 25.42 52.67 25.42 35.99 19.66 33.12"/><polygon class="cls-3" points="31.48 40.66 31.48 45.33 36.64 48.4 36.64 43.64 31.48 40.66"/></g></g></svg>